<?xml version="1.0" encoding="utf-8"?>
<!-- Generator: Adobe Illustrator 15.0.0, SVG Export Plug-In . SVG Version: 6.00 Build 0)  -->
<!DOCTYPE svg PUBLIC "-//W3C//DTD SVG 1.1//EN" "http://www.w3.org/Graphics/SVG/1.1/DTD/svg11.dtd">
<svg version="1.1" id="图层_1" xmlns="http://www.w3.org/2000/svg" xmlns:xlink="http://www.w3.org/1999/xlink" x="0px" y="0px"
	 width="194.01px" height="42px" viewBox="0 0 194.01 42" enable-background="new 0 0 194.01 42" xml:space="preserve">
<g>
	<path fill="#C22D28" d="M51.877,17.678v-2.94l5.952-7.002h3.431v7.212h1.61v2.73h-1.61v2.661h-3.501v-2.661H51.877z M57.759,11.097
		l-3.011,3.851h3.011V11.097z"/>
	<path fill="#C22D28" d="M63.851,13.897c0.093-4.107,1.936-6.231,5.531-6.372c3.546,0.14,5.367,2.265,5.461,6.372
		c-0.094,4.341-1.915,6.534-5.461,6.582C65.741,20.432,63.896,18.238,63.851,13.897z M69.382,17.818c1.12,0,1.68-1.236,1.68-3.711
		c0.093-2.566-0.49-3.827-1.75-3.781c-1.167,0-1.75,1.26-1.75,3.781C67.514,16.628,68.122,17.865,69.382,17.818z"/>
	<path fill="#C22D28" d="M75.753,13.897c0.093-4.107,1.936-6.231,5.531-6.372c3.546,0.14,5.367,2.265,5.461,6.372
		c-0.094,4.341-1.915,6.534-5.461,6.582C77.643,20.432,75.799,18.238,75.753,13.897z M81.284,17.818c1.12,0,1.68-1.236,1.68-3.711
		c0.093-2.566-0.49-3.827-1.75-3.781c-1.167,0-1.75,1.26-1.75,3.781C79.417,16.628,80.024,17.865,81.284,17.818z"/>
	<path fill="#C22D28" d="M88.566,16.768v-2.03h9.032v2.03H88.566z"/>
	<path fill="#C22D28" d="M101.519,13.757c-1.167-0.56-1.728-1.446-1.681-2.661c0.14-2.24,1.866-3.431,5.181-3.571
		c3.081,0.14,4.714,1.308,4.901,3.501c0,1.307-0.561,2.17-1.681,2.59c1.4,0.607,2.101,1.587,2.101,2.941
		c-0.14,2.521-1.938,3.827-5.391,3.921c-3.595-0.094-5.438-1.4-5.531-3.921C99.371,15.252,100.071,14.317,101.519,13.757z
		 M105.37,17.888c0.84-0.093,1.26-0.583,1.26-1.47c-0.047-1.026-0.607-1.563-1.68-1.61c-1.167,0-1.75,0.537-1.75,1.61
		C103.292,17.585,104.015,18.075,105.37,17.888z M104.879,12.777c1.026-0.046,1.563-0.49,1.61-1.331
		c-0.047-0.886-0.56-1.353-1.54-1.4c-1.074,0.047-1.635,0.514-1.681,1.4C103.315,12.287,103.853,12.731,104.879,12.777z"/>
	<path fill="#C22D28" d="M119.232,7.526v12.813h-3.711v-7.352h-2.939v-2.591c2.193,0,3.477-0.956,3.85-2.871H119.232z"/>
	<path fill="#C22D28" d="M125.324,13.757c-1.168-0.56-1.728-1.446-1.681-2.661c0.14-2.24,1.866-3.431,5.181-3.571
		c3.081,0.14,4.715,1.308,4.902,3.501c0,1.307-0.561,2.17-1.682,2.59c1.4,0.607,2.102,1.587,2.102,2.941
		c-0.141,2.521-1.938,3.827-5.392,3.921c-3.595-0.094-5.438-1.4-5.531-3.921C123.176,15.252,123.877,14.317,125.324,13.757z
		 M129.175,17.888c0.841-0.093,1.261-0.583,1.261-1.47c-0.047-1.026-0.607-1.563-1.681-1.61c-1.167,0-1.751,0.537-1.751,1.61
		C127.098,17.585,127.82,18.075,129.175,17.888z M128.685,12.777c1.026-0.046,1.563-0.49,1.61-1.331
		c-0.047-0.886-0.561-1.353-1.54-1.4c-1.074,0.047-1.635,0.514-1.681,1.4C127.12,12.287,127.658,12.731,128.685,12.777z"/>
	<path fill="#C22D28" d="M136.037,16.768v-2.03h9.031v2.03H136.037z"/>
	<path fill="#C22D28" d="M154.801,7.526v12.813h-3.711v-7.352h-2.94v-2.591c2.193,0,3.477-0.956,3.851-2.871H154.801z"/>
	<path fill="#C22D28" d="M166.703,7.526v12.813h-3.711v-7.352h-2.939v-2.591c2.193,0,3.477-0.956,3.85-2.871H166.703z"/>
	<path fill="#C22D28" d="M170.834,15.928h3.501c0,0.56,0.163,1.027,0.49,1.4c0.326,0.28,0.771,0.444,1.33,0.49
		c1.026-0.046,1.587-0.536,1.681-1.47c0.046-1.026-0.747-1.494-2.381-1.4v-2.241c1.494,0.094,2.24-0.326,2.24-1.26
		c0-0.746-0.49-1.12-1.47-1.12c-0.98,0-1.518,0.444-1.61,1.33h-3.361c0.187-2.613,1.891-3.991,5.111-4.131
		c3.081,0.094,4.691,1.26,4.832,3.501c0,1.214-0.49,2.054-1.471,2.521c1.166,0.467,1.773,1.354,1.82,2.661
		c-0.047,2.801-1.914,4.224-5.602,4.271C172.584,20.385,170.881,18.869,170.834,15.928z"/>
	<path fill="#C22D28" d="M182.737,15.928h3.501c0,0.56,0.162,1.027,0.49,1.4c0.326,0.28,0.77,0.444,1.33,0.49
		c1.025-0.046,1.586-0.536,1.68-1.47c0.047-1.026-0.746-1.494-2.381-1.4v-2.241c1.494,0.094,2.241-0.326,2.241-1.26
		c0-0.746-0.49-1.12-1.47-1.12c-0.98,0-1.518,0.444-1.611,1.33h-3.36c0.187-2.613,1.89-3.991,5.111-4.131
		c3.081,0.094,4.69,1.26,4.831,3.501c0,1.214-0.49,2.054-1.471,2.521c1.166,0.467,1.773,1.354,1.82,2.661
		c-0.047,2.801-1.914,4.224-5.602,4.271C184.487,20.385,182.783,18.869,182.737,15.928z"/>
</g>
<g>
	<path fill="#C22D28" d="M54.835,31.948c0,1.984-0.086,3.348-0.258,4.09c-0.188,0.906-0.578,1.777-1.172,2.613
		c-0.227-0.289-0.449-0.551-0.668-0.785c0.492-0.75,0.816-1.504,0.973-2.262c0.125-0.656,0.188-1.801,0.188-3.434v-4.547h9.949
		v9.352c0,1.008-0.484,1.52-1.453,1.535c-0.555,0.008-1.172,0-1.852-0.023c-0.031-0.234-0.094-0.551-0.188-0.949
		c0.758,0.047,1.34,0.07,1.746,0.07c0.555,0,0.832-0.262,0.832-0.785v-8.355h-8.098V31.948z M55.398,31.784h3.012v-1.184h-2.473
		v-0.797h2.473v-1.031h0.914v1.031h2.473v0.797h-2.473v1.184h3.023v0.797h-6.949V31.784z M56.359,33.554h5.016v3.164H57.25v0.75
		h-0.891V33.554z M60.484,35.921v-1.57H57.25v1.57H60.484z"/>
	<path fill="#C22D28" d="M64.82,32.042h11.648v1.031H64.82V32.042z"/>
	<path fill="#C22D28" d="M76.89,37.116h5.262v-2.004h-4.488v-0.844h4.488v-1.594h0.984v1.594h4.418v0.844h-4.418v2.004h5.227v0.844
		H76.89V37.116z M84.625,29.335c1.203,1.016,2.297,2.008,3.281,2.977l-0.762,0.68c-0.254-0.27-0.523-0.549-0.809-0.838
		c-2.734,0.07-5.152,0.186-7.254,0.346c-0.227,0.023-0.539,0.086-0.938,0.188l-0.48-1.008c0.43-0.141,0.793-0.328,1.09-0.563
		c0.789-0.652,1.6-1.48,2.432-2.484h-4.014v-0.844h10.934v0.844h-5.631c-0.902,1-1.877,1.977-2.924,2.93
		c1.828-0.078,3.816-0.148,5.965-0.211c-0.469-0.457-0.977-0.934-1.523-1.43L84.625,29.335z"/>
	<path fill="#C22D28" d="M90.835,31.948c0,1.984-0.086,3.348-0.258,4.09c-0.188,0.906-0.578,1.777-1.172,2.613
		c-0.227-0.289-0.449-0.551-0.668-0.785c0.492-0.75,0.816-1.504,0.973-2.262c0.125-0.656,0.188-1.801,0.188-3.434v-4.547h9.949
		v9.352c0,1.008-0.484,1.52-1.453,1.535c-0.555,0.008-1.172,0-1.852-0.023c-0.031-0.234-0.094-0.551-0.188-0.949
		c0.758,0.047,1.34,0.07,1.746,0.07c0.555,0,0.832-0.262,0.832-0.785v-8.355h-8.098V31.948z M91.398,31.784h3.012v-1.184h-2.473
		v-0.797h2.473v-1.031h0.914v1.031h2.473v0.797h-2.473v1.184h3.023v0.797h-6.949V31.784z M92.359,33.554h5.016v3.164H93.25v0.75
		h-0.891V33.554z M96.484,35.921v-1.57H93.25v1.57H96.484z"/>
	<path fill="#C22D28" d="M102.46,27.905h8.355v10.641h-0.996v-0.832h-6.363v0.832h-0.996V27.905z M103.457,28.784v3.504h6.363
		v-3.504H103.457z M103.457,33.167v3.691h6.363v-3.691H103.457z"/>
	<path fill="#C22D28" d="M116.33,31.233c0-0.211,0.074-0.387,0.223-0.527s0.326-0.211,0.533-0.211c0.211,0,0.391,0.07,0.539,0.213
		s0.223,0.318,0.223,0.525s-0.072,0.383-0.217,0.527s-0.328,0.217-0.551,0.217c-0.211,0-0.389-0.072-0.533-0.217
		S116.33,31.44,116.33,31.233z M116.33,36.507c0-0.211,0.072-0.389,0.217-0.533s0.324-0.217,0.539-0.217
		c0.219,0,0.4,0.072,0.545,0.219s0.217,0.324,0.217,0.531c0,0.203-0.072,0.377-0.217,0.523s-0.328,0.221-0.551,0.221
		c-0.215,0-0.395-0.074-0.537-0.221S116.33,36.71,116.33,36.507z"/>
	<path fill="#C22D28" d="M125.412,37.11v-7.764c-0.18,0.18-0.484,0.381-0.912,0.604s-0.822,0.379-1.186,0.469v-1.125
		c0.48-0.133,0.994-0.346,1.541-0.637s0.967-0.564,1.26-0.822h0.434v9.275H125.412z"/>
	<path fill="#C22D28" d="M129.643,32.751c0-1.602,0.266-2.814,0.797-3.637s1.301-1.232,2.309-1.232c1.922,0,2.883,1.551,2.883,4.652
		c0,1.531-0.271,2.701-0.813,3.512s-1.299,1.217-2.275,1.217c-0.922,0-1.637-0.385-2.143-1.154S129.643,34.22,129.643,32.751z
		 M130.814,32.698c0,2.41,0.611,3.615,1.834,3.615c1.203,0,1.805-1.225,1.805-3.674c0-2.535-0.59-3.803-1.77-3.803
		C131.438,28.837,130.814,30.124,130.814,32.698z"/>
	<path fill="#C22D28" d="M136.844,31.233c0-0.211,0.074-0.387,0.223-0.527s0.326-0.211,0.533-0.211c0.211,0,0.391,0.07,0.539,0.213
		s0.223,0.318,0.223,0.525s-0.072,0.383-0.217,0.527s-0.328,0.217-0.551,0.217c-0.211,0-0.389-0.072-0.533-0.217
		S136.844,31.44,136.844,31.233z M136.844,36.507c0-0.211,0.072-0.389,0.217-0.533s0.324-0.217,0.539-0.217
		c0.219,0,0.4,0.072,0.545,0.219s0.217,0.324,0.217,0.531c0,0.203-0.072,0.377-0.217,0.523s-0.328,0.221-0.551,0.221
		c-0.215,0-0.395-0.074-0.537-0.221S136.844,36.71,136.844,36.507z"/>
	<path fill="#C22D28" d="M139.568,32.751c0-1.602,0.266-2.814,0.797-3.637s1.301-1.232,2.309-1.232c1.922,0,2.883,1.551,2.883,4.652
		c0,1.531-0.271,2.701-0.813,3.512s-1.299,1.217-2.275,1.217c-0.922,0-1.637-0.385-2.143-1.154S139.568,34.22,139.568,32.751z
		 M140.74,32.698c0,2.41,0.611,3.615,1.834,3.615c1.203,0,1.805-1.225,1.805-3.674c0-2.535-0.59-3.803-1.77-3.803
		C141.363,28.837,140.74,30.124,140.74,32.698z"/>
	<path fill="#C22D28" d="M146.605,32.751c0-1.602,0.266-2.814,0.797-3.637s1.301-1.232,2.309-1.232c1.922,0,2.883,1.551,2.883,4.652
		c0,1.531-0.271,2.701-0.813,3.512s-1.299,1.217-2.275,1.217c-0.922,0-1.637-0.385-2.143-1.154S146.605,34.22,146.605,32.751z
		 M147.777,32.698c0,2.41,0.611,3.615,1.834,3.615c1.203,0,1.805-1.225,1.805-3.674c0-2.535-0.59-3.803-1.77-3.803
		C148.4,28.837,147.777,30.124,147.777,32.698z"/>
	<path fill="#C22D28" d="M160.709,32.347c-0.035,0.641-0.211,1.135-0.527,1.482s-0.74,0.521-1.271,0.521
		c-0.461,0-1.018-0.227-1.67-0.68c-0.418-0.277-0.752-0.416-1.002-0.416c-0.582,0-0.885,0.367-0.908,1.102h-0.908
		c0.027-0.641,0.203-1.135,0.527-1.482s0.75-0.521,1.277-0.521c0.441,0,0.938,0.184,1.488,0.551
		c0.551,0.371,0.963,0.557,1.236,0.557c0.258,0,0.463-0.102,0.615-0.305s0.232-0.473,0.24-0.809H160.709z"/>
	<path fill="#C22D28" d="M167.008,30.413c0-0.488-0.154-0.873-0.463-1.152s-0.729-0.418-1.26-0.418
		c-0.375,0-0.754,0.096-1.137,0.287s-0.74,0.465-1.072,0.82v-1.113c0.297-0.309,0.633-0.545,1.01-0.709s0.82-0.246,1.328-0.246
		c0.82,0,1.48,0.219,1.98,0.658s0.75,1.035,0.75,1.785c0,0.668-0.154,1.246-0.461,1.734s-0.83,0.988-1.572,1.5
		c-0.758,0.523-1.266,0.898-1.521,1.125s-0.434,0.443-0.535,0.65s-0.152,0.459-0.152,0.756h4.512v1.02h-5.707v-0.451
		c0-0.523,0.07-0.969,0.213-1.334s0.379-0.721,0.707-1.066s0.84-0.76,1.535-1.244c0.711-0.5,1.195-0.939,1.455-1.316
		S167.008,30.894,167.008,30.413z"/>
	<path fill="#C22D28" d="M174.045,30.413c0-0.488-0.154-0.873-0.463-1.152s-0.729-0.418-1.26-0.418
		c-0.375,0-0.754,0.096-1.137,0.287s-0.74,0.465-1.072,0.82v-1.113c0.297-0.309,0.633-0.545,1.01-0.709s0.82-0.246,1.328-0.246
		c0.82,0,1.48,0.219,1.98,0.658s0.75,1.035,0.75,1.785c0,0.668-0.154,1.246-0.461,1.734s-0.83,0.988-1.572,1.5
		c-0.758,0.523-1.266,0.898-1.521,1.125s-0.434,0.443-0.535,0.65s-0.152,0.459-0.152,0.756h4.512v1.02h-5.707v-0.451
		c0-0.523,0.07-0.969,0.213-1.334s0.379-0.721,0.707-1.066s0.84-0.76,1.535-1.244c0.711-0.5,1.195-0.939,1.455-1.316
		S174.045,30.894,174.045,30.413z"/>
	<path fill="#C22D28" d="M176.781,31.233c0-0.211,0.074-0.387,0.223-0.527s0.326-0.211,0.533-0.211c0.211,0,0.391,0.07,0.539,0.213
		s0.223,0.318,0.223,0.525s-0.072,0.383-0.217,0.527s-0.328,0.217-0.551,0.217c-0.211,0-0.389-0.072-0.533-0.217
		S176.781,31.44,176.781,31.233z M176.781,36.507c0-0.211,0.072-0.389,0.217-0.533s0.324-0.217,0.539-0.217
		c0.219,0,0.4,0.072,0.545,0.219s0.217,0.324,0.217,0.531c0,0.203-0.072,0.377-0.217,0.523s-0.328,0.221-0.551,0.221
		c-0.215,0-0.395-0.074-0.537-0.221S176.781,36.71,176.781,36.507z"/>
	<path fill="#C22D28" d="M179.506,32.751c0-1.602,0.266-2.814,0.797-3.637s1.301-1.232,2.309-1.232c1.922,0,2.883,1.551,2.883,4.652
		c0,1.531-0.271,2.701-0.813,3.512s-1.299,1.217-2.275,1.217c-0.922,0-1.637-0.385-2.143-1.154S179.506,34.22,179.506,32.751z
		 M180.678,32.698c0,2.41,0.611,3.615,1.834,3.615c1.203,0,1.805-1.225,1.805-3.674c0-2.535-0.59-3.803-1.77-3.803
		C181.301,28.837,180.678,30.124,180.678,32.698z"/>
	<path fill="#C22D28" d="M186.543,32.751c0-1.602,0.266-2.814,0.797-3.637s1.301-1.232,2.309-1.232c1.922,0,2.883,1.551,2.883,4.652
		c0,1.531-0.271,2.701-0.813,3.512s-1.299,1.217-2.275,1.217c-0.922,0-1.637-0.385-2.143-1.154S186.543,34.22,186.543,32.751z
		 M187.715,32.698c0,2.41,0.611,3.615,1.834,3.615c1.203,0,1.805-1.225,1.805-3.674c0-2.535-0.59-3.803-1.77-3.803
		C188.338,28.837,187.715,30.124,187.715,32.698z"/>
</g>
<circle fill-rule="evenodd" clip-rule="evenodd" fill="#C22D28" cx="21" cy="21" r="21"/>
<g>
	<path fill-rule="evenodd" clip-rule="evenodd" fill="#FFFFFF" d="M23.063,10.89c-0.052-0.011-0.104-0.017-0.155-0.019
		c-0.464-0.018-0.871,0.3-0.964,0.756c-0.052,0.248-0.003,0.5,0.136,0.713c0.139,0.211,0.353,0.356,0.6,0.407
		c1.995,0.412,3.712,1.578,4.836,3.284c1.123,1.706,1.514,3.744,1.104,5.739c-0.051,0.248-0.003,0.501,0.136,0.712
		c0.139,0.212,0.353,0.356,0.6,0.408c0.052,0.01,0.105,0.016,0.156,0.019c0.199,0.007,0.391-0.046,0.558-0.155
		c0.211-0.14,0.356-0.354,0.407-0.602C31.536,17.004,28.211,11.951,23.063,10.89L23.063,10.89L23.063,10.89z M24.695,25.129
		c0.056,0.036,1.307,0.84,2.268,1.827c0.362,0.373,0.968,0.998,0.952,1.723c-0.014,0.496-0.293,0.992-0.854,1.516
		c-0.14,0.138-1.391,1.307-3.392,1.307c-0.548,0-1.111-0.088-1.674-0.259c-0.591-0.179-1.192-0.456-1.785-0.821
		c-2.34-1.383-4.146-3.162-5.862-5.772c-2.948-4.486-3.032-8.329-3.019-9.053c0.005-3.342,2.789-4.657,3.106-4.796
		c0.437-0.202,0.818-0.3,1.169-0.3c0.168,0,0.329,0.023,0.479,0.068c0.307,0.093,0.733,0.334,1.019,0.955
		c0.391,0.842,0.76,2.048,1.012,3.311c0.265,1.311-0.469,1.679-1.18,2.035l-0.028,0.012c0,0-1.257,0.524-1.479,0.616
		c-0.217,0.09-0.331,0.335-0.256,0.559c0.507,1.536,1.282,3.129,2.239,4.607c0.941,1.453,2.062,2.795,3.238,3.882
		c0.084,0.077,0.192,0.12,0.306,0.12l0.039-0.002c0.124-0.01,0.24-0.073,0.318-0.173c0.191-0.245,0.485-0.6,0.794-0.895
		c0.587-0.558,1.117-0.829,1.622-0.829c0.138,0,0.275,0.021,0.407,0.061C24.26,24.866,24.464,24.977,24.695,25.129L24.695,25.129
		L24.695,25.129z M20.714,18.662c-0.248-0.052-0.461-0.196-0.601-0.407c-0.14-0.212-0.188-0.465-0.137-0.713
		c0.095-0.456,0.5-0.773,0.964-0.755c0.052,0.001,0.104,0.007,0.156,0.019c2.2,0.453,3.622,2.613,3.168,4.814
		c-0.051,0.247-0.195,0.459-0.407,0.6c-0.167,0.109-0.36,0.162-0.557,0.156c-0.051-0.003-0.103-0.009-0.155-0.02
		c-0.249-0.051-0.462-0.195-0.602-0.408c-0.139-0.211-0.187-0.463-0.136-0.711c0.117-0.57,0.006-1.151-0.315-1.639
		C21.772,19.112,21.283,18.779,20.714,18.662L20.714,18.662L20.714,18.662z M21.699,15.693c-0.512-0.106-0.842-0.608-0.737-1.12
		c0.094-0.457,0.5-0.775,0.964-0.757c0.051,0.002,0.104,0.008,0.156,0.019c1.78,0.367,3.313,1.408,4.315,2.931
		c1.002,1.522,1.352,3.341,0.984,5.122c-0.051,0.248-0.196,0.462-0.408,0.601c-0.167,0.11-0.358,0.163-0.556,0.155
		c-0.052-0.002-0.104-0.008-0.156-0.02c-0.511-0.104-0.842-0.606-0.737-1.119c0.265-1.285,0.013-2.599-0.711-3.698
		C24.09,16.708,22.984,15.957,21.699,15.693L21.699,15.693z"/>
</g>
</svg>
