<?xml version="1.0" encoding="utf-8"?>
<!-- Generator: Adobe Illustrator 15.0.0, SVG Export Plug-In . SVG Version: 6.00 Build 0)  -->
<!DOCTYPE svg PUBLIC "-//W3C//DTD SVG 1.1//EN" "http://www.w3.org/Graphics/SVG/1.1/DTD/svg11.dtd">
<svg version="1.1" id="图层_1" xmlns="http://www.w3.org/2000/svg" xmlns:xlink="http://www.w3.org/1999/xlink" x="0px" y="0px"
	 width="95.44px" height="27.553px" viewBox="0 0 95.44 27.553" enable-background="new 0 0 95.44 27.553" xml:space="preserve">
<rect opacity="0.9" fill="#C81E1E" width="9.969" height="9.969"/>
<rect y="17.584" opacity="0.9" fill="#57256B" width="9.969" height="9.969"/>
<g>
	<g>
		<path d="M16.414,5.25c0.588-0.935,1-1.929,1.236-2.984h-1.179V1.688h1.188v-1.64h0.618v1.64h0.939v0.577h-0.939v1.451l0.255-0.272
			c0.352,0.297,0.679,0.594,0.981,0.891l-0.421,0.42c-0.269-0.291-0.541-0.563-0.815-0.815v4.236h-0.618V3.808
			c-0.28,0.9-0.607,1.623-0.981,2.167C16.606,5.738,16.519,5.497,16.414,5.25z M19.019,6.032c1.094-0.565,2.012-1.236,2.753-2.011
			c-0.538,0.055-1.038,0.107-1.5,0.156c-0.203,0.022-0.393,0.061-0.568,0.116l-0.305-0.603c0.225-0.12,0.4-0.264,0.527-0.428
			c0.346-0.424,0.684-0.907,1.014-1.451h-1.566V1.219h2.53c-0.225-0.335-0.434-0.635-0.626-0.898l0.536-0.338
			c0.208,0.259,0.45,0.574,0.725,0.948l-0.437,0.288h2.522v0.594h-2.918c-0.401,0.61-0.816,1.185-1.245,1.723
			c0.604-0.033,1.218-0.068,1.839-0.107c0.313-0.39,0.588-0.805,0.824-1.244l0.602,0.321c-0.939,1.648-2.353,2.992-4.237,4.03
			C19.335,6.365,19.178,6.197,19.019,6.032z M19.267,7.656c1.879-0.791,3.426-2.082,4.64-3.874l0.561,0.38
			C23.994,4.843,23.479,5.456,22.918,6c0.632,0.517,1.225,1.021,1.78,1.517l-0.503,0.535c-0.517-0.511-1.094-1.055-1.731-1.632
			c-0.829,0.731-1.75,1.324-2.761,1.78C19.599,8.052,19.453,7.871,19.267,7.656z"/>
		<path d="M25.777,2.488l0.66,0.182c-0.253,1.17-0.556,2.308-0.907,3.412l-0.659-0.256C25.233,4.794,25.536,3.681,25.777,2.488z
			 M26.989,1.606h0.685v4.83c0,0.5,0.223,0.75,0.667,0.75h1.772c0.473,0,0.739-0.197,0.8-0.594c0.061-0.346,0.112-0.761,0.156-1.244
			c0.231,0.094,0.467,0.182,0.709,0.264c-0.082,0.577-0.159,1.009-0.23,1.294c-0.148,0.615-0.583,0.923-1.303,0.923h-2.068
			c-0.792,0-1.188-0.412-1.188-1.236V1.606z M28.803-0.051c0.522,0.869,0.965,1.651,1.327,2.35c-0.258,0.132-0.479,0.25-0.659,0.354
			c-0.385-0.852-0.8-1.654-1.245-2.407L28.803-0.051z M31.639,2.232c0.467,0.885,0.953,1.891,1.459,3.018l-0.685,0.338
			C31.99,4.521,31.525,3.5,31.021,2.521L31.639,2.232z"/>
		<path d="M36.86,0.65l-3.063,7.443h-0.754l3.062-7.443H36.86z"/>
		<path d="M36.901,4.079c0.77-1.132,1.377-2.476,1.821-4.03l0.668,0.197c-0.206,0.638-0.426,1.234-0.659,1.789v6.059H38.08V3.391
			c-0.28,0.517-0.577,0.988-0.89,1.414C37.107,4.568,37.012,4.326,36.901,4.079z M39.968,6.132l0.354-0.486
			c0.629,0.341,1.233,0.682,1.813,1.021l1.599-1.574h-3.511V4.508c0.109-0.344,0.215-0.685,0.317-1.022h-1.29V2.909h1.459
			c0.106-0.371,0.207-0.736,0.301-1.097h-1.356V1.235h1.505c0.096-0.382,0.186-0.758,0.268-1.129h0.709
			c-0.085,0.365-0.178,0.741-0.276,1.129h2.905v0.577h-3.054c-0.096,0.357-0.197,0.723-0.305,1.097h3.688v0.576h-3.854
			c-0.099,0.338-0.202,0.682-0.309,1.03h3.643v0.603l-1.879,1.887c0.341,0.204,0.673,0.41,0.997,0.618l-0.429,0.561
			C42.105,7.387,41.006,6.703,39.968,6.132z"/>
		<path d="M45.334,6.741c0.912-0.176,1.854-0.373,2.827-0.593c-0.022,0.285-0.033,0.483-0.033,0.593
			c-0.995,0.22-1.863,0.429-2.604,0.627L45.334,6.741z M46.405,5.011c0.439-0.061,1.003-0.143,1.689-0.247
			c-0.033,0.22-0.061,0.423-0.082,0.609c-0.688,0.094-1.473,0.212-2.357,0.354l-0.132-0.594c0.344-0.352,0.751-0.924,1.224-1.718
			c-0.571,0.038-0.982,0.067-1.232,0.086l-0.156-0.561c0.483-0.637,1.006-1.609,1.566-2.918l0.626,0.248
			c-0.533,1.044-1.02,1.918-1.459,2.621c0.36-0.006,0.685-0.014,0.973-0.025c0.165-0.294,0.338-0.612,0.52-0.956l0.618,0.272
			C47.576,3.277,46.977,4.22,46.405,5.011z M51.952,2.232c0.462,0.621,0.935,1.322,1.418,2.103
			c-0.192,0.109-0.396,0.233-0.609,0.371c-0.138-0.234-0.27-0.458-0.396-0.672c-0.255,0.017-0.519,0.031-0.791,0.045v2.794
			c0,0.336,0.124,0.503,0.371,0.503h0.403c0.27,0,0.424-0.137,0.462-0.412c0.044-0.329,0.071-0.687,0.083-1.071
			c0.181,0.077,0.4,0.156,0.659,0.239c-0.044,0.478-0.091,0.849-0.141,1.112c-0.077,0.479-0.365,0.718-0.865,0.718h-0.709
			c-0.599,0-0.898-0.344-0.898-1.031V4.116c-0.308,0.017-0.626,0.036-0.956,0.058c-0.044,1.195-0.197,2.029-0.462,2.502
			c-0.313,0.604-0.898,1.104-1.755,1.5c-0.121-0.17-0.262-0.354-0.421-0.553c0.797-0.324,1.33-0.75,1.6-1.277
			c0.247-0.42,0.38-1.13,0.399-2.131c-0.112,0.009-0.227,0.016-0.342,0.021c-0.236,0.022-0.456,0.059-0.66,0.107L48.062,3.7
			c0.236-0.099,0.427-0.23,0.569-0.396c0.412-0.492,0.8-1.027,1.162-1.607h-1.797V1.112h2.629c-0.206-0.316-0.4-0.597-0.585-0.841
			l0.544-0.338c0.209,0.258,0.442,0.565,0.701,0.923l-0.392,0.256h2.51v0.585h-3.347l0.453,0.197
			c-0.456,0.616-0.903,1.182-1.343,1.698c1.035-0.035,1.987-0.072,2.855-0.111c-0.209-0.335-0.408-0.642-0.598-0.919L51.952,2.232z"
			/>
		<path d="M53.832,0.774h3.775c-0.121-0.234-0.236-0.44-0.347-0.618l0.618-0.248c0.156,0.272,0.31,0.561,0.457,0.866h3.606v0.544
			h-8.11V0.774z M54.944,8.068h-0.626V4.203h7.204v2.802c0,0.677-0.319,1.015-0.956,1.015c-0.357,0-0.759-0.006-1.204-0.017
			c-0.032-0.188-0.076-0.404-0.132-0.651c0.506,0.038,0.894,0.058,1.162,0.058c0.336,0,0.503-0.168,0.503-0.503V4.73h-5.951V8.068z
			 M55.241,1.862h5.35v2.011h-0.627V3.609h-4.096v0.256h-0.627V1.862z M59.964,2.373h-4.096v0.726h4.096V2.373z M56.058,5.274h3.726
			v1.723H56.65v0.354h-0.593V5.274z M59.189,6.486V5.785H56.65v0.701H59.189z"/>
		<path d="M64.86,2.843c-0.104,0.811-0.3,1.951-0.585,3.421c0.283-0.061,0.544-0.121,0.783-0.182
			c-0.006,0.215-0.003,0.409,0.008,0.585c-0.621,0.154-1.527,0.353-2.72,0.594l-0.124-0.618c0.553-0.091,1.056-0.18,1.509-0.268
			c0.269-1.651,0.45-2.864,0.544-3.64L64.86,2.843z M62.313,1.664h2.827V2.2h-2.827V1.664z M62.421,2.958l0.561-0.123
			c0.181,0.785,0.362,1.75,0.544,2.893l-0.569,0.148C62.808,4.777,62.63,3.805,62.421,2.958z M62.989,0.32l0.503-0.297
			c0.324,0.401,0.602,0.813,0.832,1.237L63.78,1.59C63.583,1.205,63.319,0.782,62.989,0.32z M65.091,3.14h5.333v0.536h-2.473
			l-0.227,0.898h2.313v2.736c0,0.473-0.209,0.709-0.627,0.709c-0.143,0-0.344-0.003-0.602-0.009
			c-0.038-0.226-0.094-0.429-0.165-0.609c0.188,0.016,0.377,0.024,0.569,0.024c0.164,0,0.247-0.085,0.247-0.256V5.085h-0.85v2.588
			h-0.552V5.085h-0.816v2.538H66.69V5.085h-0.824v3.009h-0.577v-3.52h1.838l0.189-0.898h-2.226V3.14z M69.237,2.604V2.349h-3.726
			V0.494h0.577v1.343h1.277v-1.862h0.594v1.862h1.277V0.494h0.577v2.109H69.237z"/>
		<path d="M70.655,4.096c0.879-1.198,1.544-2.563,1.994-4.097l0.676,0.198c-0.228,0.64-0.467,1.236-0.717,1.788v6.124h-0.643V3.259
			c-0.327,0.586-0.671,1.106-1.03,1.563C70.858,4.579,70.765,4.338,70.655,4.096z M73.119,7.187h2.539V4.673h-2.061v-0.61h2.061
			V2.076h-2.291V1.467h5.226v0.609h-2.275v1.986h2.044v0.61h-2.044v2.514h2.522v0.61h-5.721V7.187z M75.238,0.337l0.535-0.338
			c0.303,0.363,0.577,0.717,0.824,1.063L75.996,1.45C75.754,1.043,75.502,0.672,75.238,0.337z"/>
		<path d="M79.326,5.109l2.983-0.264V3.42c-0.777,0.058-1.558,0.109-2.341,0.156c-0.021-0.192-0.065-0.393-0.132-0.602
			c2.127-0.104,4.154-0.27,6.083-0.494l0.107,0.618C85.014,3.2,83.994,3.291,82.97,3.37v1.418l4.014-0.354l0.033,0.594L82.97,5.386
			v1.199c0,0.456,0.197,0.685,0.593,0.685h1.987c0.423,0,0.684-0.195,0.782-0.586c0.066-0.313,0.116-0.681,0.148-1.104
			c0.231,0.11,0.448,0.198,0.651,0.264c-0.05,0.396-0.109,0.756-0.182,1.08c-0.148,0.627-0.541,0.939-1.179,0.939h-2.415
			c-0.697,0-1.047-0.387-1.047-1.162V5.443l-2.942,0.26L79.326,5.109z M79.467,1.005h3.527c-0.138-0.264-0.291-0.524-0.462-0.783
			l0.603-0.297c0.235,0.365,0.447,0.726,0.634,1.08h3.174v1.55h-0.668V1.599h-6.148v0.956h-0.659V1.005z"/>
		<path d="M88.22,0.609h7.089v0.643h-6.388v5.753h6.52v0.627H88.22V0.609z M89.556,2.159l0.461-0.438
			c0.688,0.566,1.405,1.188,2.155,1.863c0.574-0.621,1.126-1.297,1.653-2.028l0.602,0.404C93.85,2.708,93.265,3.4,92.671,4.038
			c0.685,0.624,1.394,1.291,2.127,2.003l-0.569,0.577c-0.665-0.695-1.349-1.382-2.052-2.061c-0.794,0.805-1.603,1.514-2.424,2.126
			c-0.132-0.17-0.308-0.349-0.527-0.535c0.862-0.588,1.683-1.273,2.46-2.057C90.996,3.44,90.286,2.796,89.556,2.159z"/>
	</g>
</g>
<g>
	<g>
		<path d="M16.414,21.856h1.327c-0.233-0.37-0.453-0.689-0.659-0.956l0.445-0.313c0.181,0.22,0.414,0.53,0.7,0.931l-0.466,0.338
			h1.088c0.3-0.431,0.576-0.856,0.829-1.277l0.585,0.33c-0.267,0.343-0.521,0.659-0.763,0.947h1.249v0.528h-4.336V21.856z
			 M17.279,24.297l0.561,0.264c-0.297,0.621-0.591,1.182-0.882,1.682c-0.159-0.1-0.341-0.198-0.544-0.297
			C16.684,25.527,16.972,24.979,17.279,24.297z M16.645,23.398h1.682v-0.783h0.594v0.783h1.615v0.527H18.92v2.151
			c0,0.582-0.28,0.874-0.841,0.874c-0.236,0-0.503-0.003-0.8-0.009c-0.021-0.182-0.052-0.39-0.09-0.626
			c0.318,0.032,0.568,0.049,0.75,0.049c0.258,0,0.387-0.14,0.387-0.42v-2.02h-1.682V23.398z M16.678,19.944h1.78
			c-0.118-0.225-0.253-0.47-0.403-0.733l0.527-0.247c0.17,0.28,0.33,0.563,0.479,0.849l-0.276,0.132h1.751v0.527h-3.857V19.944z
			 M19.653,24.338c0.308,0.418,0.577,0.802,0.808,1.154l-0.527,0.362c-0.241-0.423-0.497-0.821-0.767-1.195L19.653,24.338z
			 M21.038,19.697c1.138-0.011,2.188-0.124,3.148-0.338l0.215,0.635c-1.088,0.143-2.014,0.236-2.778,0.28v1.92h3.009v0.561h-1.179
			v4.319h-0.609v-4.319h-1.221v0.404c0,1.687-0.403,3-1.211,3.939c-0.132-0.17-0.277-0.346-0.438-0.527
			c0.709-0.774,1.063-1.92,1.063-3.437V19.697z"/>
		<path d="M24.929,22.978h8.086v0.685h-8.086V22.978z M27.583,24.033l0.577,0.42c-0.836,1.006-1.706,1.898-2.613,2.679
			c-0.138-0.153-0.28-0.305-0.429-0.453l-0.074-0.074C25.989,25.857,26.836,25,27.583,24.033z M25.382,19.87l0.594-0.329
			c0.506,0.856,0.98,1.728,1.426,2.612l-0.667,0.354C26.283,21.535,25.833,20.656,25.382,19.87z M27.962,19.235l0.651-0.197
			c0.379,1.033,0.712,2.006,0.997,2.918l-0.717,0.214C28.624,21.148,28.313,20.17,27.962,19.235z M29.784,24.494l0.485-0.444
			c0.968,0.879,1.847,1.714,2.638,2.505l-0.593,0.544C31.528,26.226,30.685,25.357,29.784,24.494z M30.377,22.179
			c0.648-0.989,1.189-1.927,1.624-2.812l0.659,0.306c-0.517,0.973-1.079,1.926-1.689,2.859L30.377,22.179z"/>
		<path d="M33.345,19.764h3.775c-0.121-0.234-0.236-0.44-0.347-0.618l0.618-0.248c0.156,0.272,0.31,0.561,0.457,0.866h3.606v0.544
			h-8.11V19.764z M34.457,27.058h-0.626v-3.865h7.204v2.802c0,0.677-0.319,1.015-0.956,1.015c-0.357,0-0.759-0.006-1.204-0.017
			c-0.032-0.188-0.076-0.404-0.132-0.651c0.506,0.038,0.894,0.058,1.162,0.058c0.336,0,0.503-0.168,0.503-0.503V23.72h-5.951V27.058
			z M34.754,20.852h5.35v2.011h-0.627v-0.264h-4.096v0.256h-0.627V20.852z M39.477,21.362h-4.096v0.726h4.096V21.362z M35.57,24.264
			h3.726v1.723h-3.133v0.354H35.57V24.264z M38.702,25.476v-0.701h-2.539v0.701H38.702z"/>
		<path d="M44.373,21.832c-0.104,0.811-0.3,1.951-0.585,3.421c0.283-0.061,0.544-0.121,0.783-0.182
			c-0.006,0.215-0.003,0.409,0.008,0.585c-0.621,0.154-1.527,0.353-2.72,0.594l-0.124-0.618c0.553-0.091,1.056-0.18,1.509-0.268
			c0.269-1.651,0.45-2.864,0.544-3.64L44.373,21.832z M41.826,20.653h2.827v0.536h-2.827V20.653z M41.934,21.947l0.561-0.123
			c0.181,0.785,0.362,1.75,0.544,2.893l-0.569,0.148C42.32,23.767,42.143,22.794,41.934,21.947z M42.502,19.31l0.503-0.297
			c0.324,0.401,0.602,0.813,0.832,1.237l-0.544,0.329C43.096,20.194,42.832,19.771,42.502,19.31z M44.604,22.129h5.333v0.536h-2.473
			l-0.227,0.898h2.313V26.3c0,0.473-0.209,0.709-0.627,0.709c-0.143,0-0.344-0.003-0.602-0.009
			c-0.038-0.226-0.094-0.429-0.165-0.609c0.188,0.016,0.377,0.024,0.569,0.024c0.164,0,0.247-0.085,0.247-0.256v-2.085h-0.85v2.588
			h-0.552v-2.588h-0.816v2.538h-0.552v-2.538h-0.824v3.009h-0.577v-3.52h1.838l0.189-0.898h-2.226V22.129z M48.75,21.593v-0.255
			h-3.726v-1.854h0.577v1.343h1.277v-1.862h0.594v1.862h1.277v-1.343h0.577v2.109H48.75z"/>
		<path d="M50.168,23.085c0.879-1.198,1.544-2.563,1.994-4.097l0.676,0.198c-0.228,0.64-0.467,1.236-0.717,1.788v6.124h-0.643
			v-4.851c-0.327,0.586-0.671,1.106-1.03,1.563C50.371,23.568,50.277,23.327,50.168,23.085z M52.632,26.176h2.539v-2.514H53.11
			v-0.61h2.061v-1.986H52.88v-0.609h5.226v0.609H55.83v1.986h2.044v0.61H55.83v2.514h2.522v0.61h-5.721V26.176z M54.751,19.326
			l0.535-0.338c0.303,0.363,0.577,0.717,0.824,1.063l-0.602,0.388C55.267,20.032,55.015,19.661,54.751,19.326z"/>
		<path d="M58.839,24.099l2.983-0.264v-1.426c-0.777,0.058-1.558,0.109-2.341,0.156c-0.021-0.192-0.065-0.393-0.132-0.602
			c2.127-0.104,4.154-0.27,6.083-0.494l0.107,0.618c-1.014,0.102-2.033,0.192-3.058,0.271v1.418l4.014-0.354l0.033,0.594
			l-4.047,0.358v1.199c0,0.456,0.197,0.685,0.593,0.685h1.987c0.423,0,0.684-0.195,0.782-0.586c0.066-0.313,0.116-0.681,0.148-1.104
			c0.231,0.11,0.448,0.198,0.651,0.264c-0.05,0.396-0.109,0.756-0.182,1.08c-0.148,0.627-0.541,0.939-1.179,0.939h-2.415
			c-0.697,0-1.047-0.387-1.047-1.162v-1.257l-2.942,0.26L58.839,24.099z M58.979,19.994h3.527c-0.138-0.264-0.291-0.524-0.462-0.783
			l0.603-0.297c0.235,0.365,0.447,0.726,0.634,1.08h3.174v1.55h-0.668v-0.956h-6.148v0.956h-0.659V19.994z"/>
		<path d="M67.732,19.599h7.089v0.643h-6.388v5.753h6.52v0.627h-7.221V19.599z M69.068,21.148l0.461-0.438
			c0.688,0.566,1.405,1.188,2.155,1.863c0.574-0.621,1.126-1.297,1.653-2.028l0.602,0.404c-0.577,0.747-1.162,1.439-1.756,2.077
			c0.685,0.624,1.394,1.291,2.127,2.003l-0.569,0.577c-0.665-0.695-1.349-1.382-2.052-2.061c-0.794,0.805-1.603,1.514-2.424,2.126
			c-0.132-0.17-0.308-0.349-0.527-0.535c0.862-0.588,1.683-1.273,2.46-2.057C70.509,22.43,69.799,21.785,69.068,21.148z"/>
	</g>
</g>
</svg>
