<?xml version="1.0" encoding="utf-8"?>
<!-- Generator: Adobe Illustrator 15.0.0, SVG Export Plug-In . SVG Version: 6.00 Build 0)  -->
<!DOCTYPE svg PUBLIC "-//W3C//DTD SVG 1.1//EN" "http://www.w3.org/Graphics/SVG/1.1/DTD/svg11.dtd">
<svg version="1.1" id="图层_1" xmlns="http://www.w3.org/2000/svg" xmlns:xlink="http://www.w3.org/1999/xlink" x="0px" y="0px"
	 width="456px" height="121.165px" viewBox="0 0 456 121.165" enable-background="new 0 0 456 121.165" xml:space="preserve">
<g>
	<path fill="#FFFFFF" d="M3.365,9.5V5.344h11.479c2.638,0,5.607-0.461,8.906-1.386V8.51c-0.133,0-0.331,0.068-0.594,0.198
		c-1.979,0.266-3.958,0.464-5.938,0.594v6.333h9.302c-0.133-3.958-0.198-8.313-0.198-13.063h6.333c-0.133,2.508-0.133,5.675,0,9.5
		c0,1.583,0,2.771,0,3.563h15.635v4.354H32.854c0.13,4.354,0.526,8.313,1.188,11.875c2.375-2.505,4.552-5.804,6.531-9.896h6.136
		c-2.904,6.599-6.729,11.81-11.479,15.635c1.45,4.224,3.297,6.333,5.542,6.333c1.846,0,2.771-1.12,2.771-3.365h4.354
		c0.13,5.146-2.177,7.719-6.927,7.719c-4.62,0-8.049-2.508-10.292-7.521c-1.717,1.058-4.883,2.443-9.5,4.156
		c-0.662,0.263-1.123,0.461-1.386,0.594v-3.958c4.088-1.979,7.19-3.761,9.302-5.344c0-0.396-0.133-0.922-0.396-1.583
		c-0.133-0.921-0.266-1.648-0.396-2.177c-0.662-3.429-1.188-7.585-1.583-12.469h-9.5v7.719c2.109-0.396,4.552-0.989,7.323-1.781
		v4.156c-2.508,0.925-4.948,1.651-7.323,2.177v9.698c0,3.958-2.112,5.938-6.333,5.938H5.74v-4.156h2.573
		c1.713,0,2.573-0.792,2.573-2.375v-7.719c-0.528,0-1.32,0.068-2.375,0.198c-2.375,0.266-4.354,0.396-5.938,0.396v-4.948
		c2.242-0.13,5.013-0.328,8.313-0.594v-8.708h-8.51v-4.354h8.51V9.5H3.365z M38.99,13.458c-0.396-2.638-1.256-5.671-2.573-9.104
		h5.146c1.317,2.641,2.375,5.675,3.167,9.104H38.99z"/>
	<path fill="#FFFFFF" d="M57.594,48.489V19.594c-1.454,0.924-3.167,1.781-5.146,2.573v-3.563c4.617-3.692,7.453-8.906,8.511-15.635
		h6.135c-0.792,4.091-1.914,7.391-3.365,9.896v35.625H57.594z M69.073,48.094V13.26h6.136v34.833H69.073z M72.635,11.281
		c-0.528-2.901-1.453-5.607-2.771-8.115h5.344c1.317,2.245,2.375,4.948,3.167,8.115H72.635z M85.5,47.896v-4.156h2.771
		c1.979,0.13,2.9-0.724,2.771-2.573V10.292h-9.896V6.135h16.229V41.76c0,4.221-2.047,6.265-6.135,6.135H85.5z"/>
	<path fill="#FFFFFF" d="M105.292,46.313V8.906h5.74c0.525-1.713,0.989-3.627,1.385-5.74h5.938c-0.396,2.112-0.859,4.026-1.385,5.74
		h7.719v31.073c0.13,4.354-1.915,6.463-6.136,6.333H105.292z M111.032,13.063v11.875h7.916V13.063H111.032z M111.032,42.552h5.541
		c1.714,0.133,2.505-0.792,2.375-2.771V28.896h-7.916V42.552z M135.177,47.5v-3.958h4.156c2.109,0,3.099-0.99,2.969-2.969V12.271
		h-8.114c-1.584,2.641-4.354,4.883-8.313,6.729v-3.761c3.033-2.505,4.75-6.596,5.146-12.271h5.938
		c-0.133,0.529-0.266,1.188-0.396,1.979c0,0.662-0.198,1.651-0.594,2.969h12.271v32.854c0.263,4.75-1.914,6.992-6.531,6.729H135.177
		z M131.813,33.646c-0.529-4.484-1.651-9.036-3.365-13.656h4.948c1.846,3.958,3.231,8.511,4.156,13.656H131.813z"/>
	<path fill="#FFFFFF" d="M156.948,11.083V6.927h11.677l1.188-4.354h6.927c-0.396,1.583-0.792,3.037-1.188,4.354h22.365v4.156
		h-23.948c-0.266,1.058-0.792,2.508-1.583,4.354c-0.396,0.792-0.662,1.385-0.792,1.781h28.896v4.156h-30.875
		c-0.925,1.716-1.979,3.498-3.167,5.344h30.083v4.156c-3.829,4.487-7.521,7.852-11.083,10.094c0.921,0.266,2.307,0.727,4.156,1.385
		c1.054,0.396,1.846,0.662,2.375,0.792v5.542c-8.708-3.563-18.737-6.531-30.083-8.906v-4.354c6.463,0.925,12.469,2.177,18.011,3.761
		c2.638-1.846,5.408-4.617,8.313-8.313h-27.511v-4.156c0.922-1.846,1.781-3.627,2.573-5.344h-8.906v-4.156h10.885
		c0.263-0.792,0.724-1.979,1.385-3.563c0.263-1.188,0.526-2.044,0.792-2.573H156.948z"/>
	<path fill="#FFFFFF" d="M205.24,46.114v-3.958H218.5V3.364h6.333v38.792h6.333V3.364h6.135v38.792h13.459v3.958H205.24z
		 M210.386,32.656c-1.716-5.146-3.102-12.336-4.156-21.573h5.938c0.396,6.6,1.583,13.79,3.563,21.573H210.386z M240.271,32.656
		c1.713-6.596,2.9-13.786,3.563-21.573h5.938c-1.058,9.237-2.443,16.427-4.156,21.573H240.271z"/>
	<path fill="#FFFFFF" d="M286.188,46.906c-5.017,0.13-7.456-2.245-7.323-7.125v-5.542c-2.771,5.808-10.094,10.62-21.969,14.448
		v-4.156c7.255-2.771,12.139-6.002,14.646-9.698c2.638-3.429,3.89-8.64,3.76-15.635v-6.333h6.531v5.146
		c0,3.037-0.197,5.74-0.594,8.115H285v13.458c-0.134,2.375,1.054,3.498,3.563,3.365h3.958c2.242,0.133,3.297-0.856,3.167-2.969
		v-2.375h4.948v2.969c0.262,4.354-2.113,6.463-7.125,6.333H286.188z M261.052,32.26V4.948h35.229V32.26h-6.333V9.302h-22.761V32.26
		H261.052z"/>
	<path fill="#FFFFFF" d="M306.574,16.823v-3.365c3.43-2.771,5.739-6.265,6.927-10.489h5.542c-0.133,0.266-0.266,0.662-0.396,1.188
		c-0.266,0.792-0.463,1.32-0.594,1.583h8.709V9.5c-0.792,1.716-1.717,3.167-2.771,4.354h4.354v29.292
		c0.13,3.167-1.519,4.682-4.948,4.552h-2.177v-3.76h0.989c1.188,0.13,1.713-0.396,1.584-1.583v-5.542h-2.969v8.114h-4.553v-8.114
		h-3.166c-0.266,5.016-2.573,8.906-6.928,11.677v-4.552c1.847-2.375,2.703-5.672,2.573-9.896V15.635L306.574,16.823z M321.417,9.5
		h-5.344c-1.188,1.716-2.641,3.167-4.354,4.354h6.927C319.701,12.404,320.625,10.953,321.417,9.5z M313.302,17.813v5.739h2.969
		v-5.739H313.302z M313.302,27.313v5.938h2.969v-5.938H313.302z M323.792,17.813h-2.969v5.739h2.969V17.813z M320.824,27.313v5.938
		h2.969v-5.938H320.824z M329.333,33.844v-3.563c1.713-1.979,2.639-4.88,2.771-8.708h4.75c0,0.396-0.068,0.99-0.198,1.781
		c0,0.529,0,0.925,0,1.188h2.573v-3.76h5.541v3.76h6.531V28.5h-6.531v6.927h7.521v3.958h-7.521v9.104h-5.541v-9.104h-9.896v-3.958
		h9.896V28.5h-3.959C334.214,30.745,332.234,32.526,329.333,33.844z M329.73,20.781v-3.563c3.166-2.109,4.814-4.88,4.947-8.313
		h-4.354V4.948h20.583v8.51c0.13,4.091-1.979,6.071-6.333,5.938h-3.563v-3.76h1.781c1.713,0,2.572-0.856,2.572-2.573V8.906h-5.344
		C339.625,14.448,336.193,18.406,329.73,20.781z"/>
	<path fill="#FFFFFF" d="M357.042,44.729v-4.75c0.262,0,0.723-0.065,1.385-0.198c0.525,0,0.922,0,1.188,0V5.146h17.813v32.458
		c0.658-0.263,1.252-0.461,1.781-0.594v3.563c3.43-5.409,5.014-14.117,4.75-26.125v-0.594h-4.552V9.896h4.552V2.969h5.74v6.927
		h11.479v30.875c0.264,4.75-2.047,6.992-6.927,6.729h-4.354v-3.958h2.771c1.846,0.13,2.702-0.659,2.572-2.375V13.854h-5.541
		c0.525,16.495-3.498,28.104-12.073,34.833v-5.146c0.13-0.263,0.327-0.659,0.594-1.188c0.263-0.396,0.46-0.724,0.594-0.99
		C373.271,42.948,366.013,44.067,357.042,44.729z M364.958,9.302v6.927h7.125V9.302H364.958z M364.958,19.989v7.323h7.125v-7.323
		H364.958z M364.958,39.385c2.375-0.263,4.75-0.594,7.125-0.99v-7.125h-7.125V39.385z"/>
	<path fill="#FFFFFF" d="M407.708,17.614v-3.167c4.617-2.375,7.586-6.2,8.906-11.479h5.938c-0.925,3.563-2.245,6.401-3.959,8.51
		v19.198h-5.938V16.031C411.074,16.693,409.421,17.219,407.708,17.614z M407.906,46.114c1.584-3.429,2.836-7.981,3.762-13.656h4.947
		c-0.662,5.808-1.717,10.36-3.166,13.656H407.906z M425.718,47.302c-4.354,0.13-6.466-1.781-6.332-5.739v-9.104h5.938v7.719
		c-0.134,2.245,0.988,3.365,3.363,3.365h7.719c1.98,0,2.901-0.856,2.771-2.573v-0.99h4.75v1.583c0,3.825-1.979,5.739-5.938,5.739
		H425.718z M420.968,15.833v-3.167c3.693-2.242,5.87-5.409,6.531-9.5h5.938c-0.133,0.925-0.395,1.849-0.791,2.771h19.396v8.313
		H446.5V9.896h-16.031C428.62,12.537,425.453,14.516,420.968,15.833z M421.365,29.489v-3.563c2.9-2.375,4.484-6.002,4.75-10.885
		h5.344C431.458,22.037,428.093,26.852,421.365,29.489z M429.875,30.875v-3.958h1.98c1.979,0,2.9-0.921,2.77-2.771V11.875h5.938
		v12.271c0.131,4.62-2.047,6.862-6.531,6.729H429.875z M432.449,39.385c-0.396-2.771-0.99-5.078-1.781-6.927h5.145
		c1.188,2.245,1.98,4.552,2.375,6.927H432.449z M453.23,29.489c-6.6-2.505-9.896-7.323-9.896-14.448h5.146
		c0.262,4.75,1.846,8.38,4.75,10.885V29.489z M447.687,46.114c-0.395-3.825-1.518-8.377-3.363-13.656h4.947
		c1.979,4.75,3.297,9.302,3.959,13.656H447.687z"/>
	<path fill="#FFFFFF" d="M91.438,80.79v-6.531c0-5.672,2.771-9.565,8.313-11.678v2.771c-3.433,1.979-5.081,4.685-4.948,8.114h4.156
		v7.323H91.438z M102.323,80.79v-6.531c0-5.672,2.771-9.565,8.313-11.678v2.771c-3.299,1.85-4.883,4.552-4.75,8.114h3.959v7.323
		H102.323z"/>
	<path fill="#FFFFFF" d="M129.438,109.29v-4.156c2.638-2.506,3.825-6.531,3.563-12.073V71.487h20.781c0-0.791,0-1.979,0-3.563
		c-0.133-1.979-0.198-3.494-0.198-4.552h6.333c0,3.036,0,5.739,0,8.114h5.344v-6.729h5.146v6.729h4.552v4.354h-14.844
		c0.13,5.808,0.659,11.479,1.583,17.021c2.505-3.563,4.419-8.114,5.74-13.656h5.739c-2.245,8.578-5.542,15.175-9.896,19.792
		c1.45,3.695,3.296,5.542,5.542,5.542c1.583,0.129,2.375-0.99,2.375-3.365h4.354c0.13,5.275-2.047,7.85-6.531,7.719
		c-4.224,0-7.456-1.979-9.698-5.938c-2.641,1.713-5.74,3.693-9.302,5.938v-4.354c2.901-1.847,5.344-3.891,7.323-6.136
		c0-0.263-0.133-0.724-0.396-1.386c-0.133-0.922-0.266-1.583-0.396-1.979c-1.32-4.617-2.177-11.016-2.573-19.198h-14.844v6.729
		h12.271v15.635c0.13,4.092-1.914,6.07-6.136,5.938h-4.156v-3.958h2.177c1.713,0.133,2.505-0.724,2.375-2.573V86.727h-6.531v5.146
		C139.532,100.185,136.297,105.99,129.438,109.29z"/>
	<path fill="#FFFFFF" d="M179.115,105.529v-3.563c2.242-1.979,3.563-5.013,3.958-9.104h4.553
		C187.096,99.461,184.26,103.682,179.115,105.529z M180.302,71.883v-4.156h8.511v-4.156h6.531v4.156h8.313v4.156H180.302z
		 M182.083,90.091V75.446h19.594v8.708c0.263,4.224-1.651,6.204-5.739,5.938h-0.792v12.469c0.13,4.222-1.85,6.265-5.938,6.136
		h-3.761v-3.959h1.584c1.846,0.131,2.702-0.594,2.572-2.177V90.091H182.083z M187.427,86.331h6.729
		c1.713,0.133,2.505-0.658,2.375-2.375v-4.75h-9.104V86.331z M203.063,78.415v-4.156h4.75V63.571h5.541v10.688h11.281v4.156h-11.281
		c0,1.32-0.067,2.641-0.197,3.958h4.947v20.583c-0.133,0.925,0.461,1.386,1.781,1.386c1.317,0,1.911-0.461,1.781-1.386v-2.572h3.959
		v2.771c0.13,3.43-1.584,5.077-5.146,4.948h-2.177c-3.958,0.129-5.873-1.519-5.739-4.948V88.31
		c-0.792,7.917-4.487,14.911-11.084,20.979v-4.948l0.792-1.386c-3.433-1.979-5.279-5.344-5.542-10.094h4.354
		c0,3.037,0.922,5.412,2.771,7.125c2.771-5.275,4.089-12.469,3.959-21.572H203.063z M217.708,72.674
		c-0.396-2.375-1.058-4.814-1.979-7.322h4.553c1.317,2.641,2.177,5.08,2.572,7.322H217.708z"/>
	<path fill="#FFFFFF" d="M243.833,85.737v-13.26h7.917c0.525-1.055,0.856-2.045,0.989-2.969h-12.864v21.771
		c0.396,8.313-2.641,14.25-9.104,17.813v-4.156c1.979-2.638,2.969-6.464,2.969-11.479V65.549h42.553v3.959h-17.219
		c-0.267,1.188-0.594,2.177-0.99,2.969h14.844v7.125c0.263,4.225-1.914,6.268-6.531,6.135h-4.75v3.563
		c0.263,3.695-1.717,5.477-5.938,5.344h-3.958v-2.969h1.781c1.713,0.133,2.505-0.658,2.375-2.375v-3.563H243.833z M238.886,106.716
		c1.449-2.901,2.572-6.531,3.364-10.886h4.354c-0.662,4.75-1.584,8.381-2.771,10.886H238.886z M241.261,94.643v-2.969
		c2.771-0.791,4.682-2.307,5.739-4.552h5.739C251.287,91.081,247.46,93.588,241.261,94.643z M254.125,108.299
		c-4.092,0.131-6.071-1.716-5.938-5.541v-6.928h5.542v6.334c-0.134,1.716,0.855,2.504,2.969,2.375h4.354
		c1.713,0.129,2.505-0.396,2.375-1.584v-1.188h4.354v1.584c0.13,3.43-1.651,5.078-5.344,4.947H254.125z M249.771,75.446v2.177
		h17.219v-2.177H249.771z M249.771,82.768h14.646c1.846,0.133,2.702-0.658,2.572-2.375h-17.219V82.768z M259.074,101.768
		c-0.396-1.979-0.99-3.958-1.781-5.938h4.552c1.054,2.246,1.846,4.225,2.375,5.938H259.074z M275.896,94.643
		c-6.07-0.922-9.896-3.43-11.479-7.521h5.541c1.188,2.245,3.167,3.761,5.938,4.552V94.643z M270.552,106.716
		c-0.791-3.692-1.85-7.323-3.166-10.886h4.75c1.846,4.225,3.033,7.852,3.563,10.886H270.552z"/>
	<path fill="#FFFFFF" d="M285.199,79.206V65.154h37.604v7.917c0.13,4.225-1.781,6.268-5.739,6.135h-9.5v2.573h19.396v3.761h-45.916
		v-3.761h19.594v-2.573H285.199z M281.833,107.904v-3.167c3.959-0.658,6.795-2.307,8.511-4.947h6.333
		C294.169,104.54,289.222,107.243,281.833,107.904z M286.386,98.206V88.112h35.229v4.354c0.264,3.958-1.583,5.872-5.541,5.739
		h-8.313v4.75c0.129,3.959-1.979,5.869-6.334,5.74h-5.344v-3.959h2.969c1.846,0.131,2.703-0.594,2.573-2.177v-4.354H286.386z
		 M291.136,68.518v2.375h25.729v-2.375H291.136z M291.136,75.841h23.156c1.846,0.133,2.702-0.659,2.572-2.375h-25.729V75.841z
		 M292.719,94.841h20.583c1.584,0.133,2.307-0.594,2.178-2.177v-1.386h-22.761V94.841z M326.167,107.904
		c-7.258-0.661-12.207-3.364-14.844-8.114h6.333c1.847,2.641,4.682,4.289,8.511,4.947V107.904z"/>
	<path fill="#FFFFFF" d="M345.365,80.79v-2.573c3.166-2.242,4.75-5.013,4.75-8.313h-3.959v-7.323h7.521v6.531
		C353.677,74.787,350.906,78.68,345.365,80.79z M356.25,80.79v-2.573c3.297-2.108,4.948-4.88,4.948-8.313h-4.156v-7.323h7.521v6.531
		C364.693,74.787,361.921,78.68,356.25,80.79z"/>
</g>
</svg>
