<?xml version="1.0" encoding="utf-8"?>
<!-- Generator: Adobe Illustrator 15.0.0, SVG Export Plug-In . SVG Version: 6.00 Build 0)  -->
<!DOCTYPE svg PUBLIC "-//W3C//DTD SVG 1.1//EN" "http://www.w3.org/Graphics/SVG/1.1/DTD/svg11.dtd">
<svg version="1.1" id="图层_1" xmlns="http://www.w3.org/2000/svg" xmlns:xlink="http://www.w3.org/1999/xlink" x="0px" y="0px"
	 width="104.945px" height="69.45px" viewBox="0 0 104.945 69.45" enable-background="new 0 0 104.945 69.45" xml:space="preserve">
<g>
	<defs>
		<polyline id="SVGID_1_" points="104.945,0 0,0 0,69.45 104.945,69.45 		"/>
	</defs>
	<clipPath id="SVGID_2_">
		<use xlink:href="#SVGID_1_"  overflow="visible"/>
	</clipPath>
	<path clip-path="url(#SVGID_2_)" fill="#FFFFFF" d="M62.867,9.234h-8.933H51.14v1.078c0.563,0.056,1.022,0.115,1.397,0.201
		c0.442,0.101,0.77,0.237,1.011,0.443c0.701,0.597,0.686,1.714,0.686,3.737l0,13.583c-0.003,2.765,0.248,6.678-3.668,6.626
		c-1.679-0.022-3.402-1.218-3.938-3.403H45.28c0.569,3.662,2.52,6.146,7.247,6.146h0.01h0.011c4.015,0,7.598-1.845,7.592-8.114
		V18.963v-4.27c0-2.023-0.015-3.094,0.685-3.691c0.447-0.382,0.818-0.571,2.042-0.69V9.234z"/>
	<path clip-path="url(#SVGID_2_)" fill="#FFFFFF" d="M76.316,9.234H64.589v0.001v1.024v0.053c1.225,0.12,1.595,0.308,2.042,0.69
		c0.562,0.479,0.663,1.262,0.682,2.596c-0.001,0.404-0.005,0.854,0.004,1.358v16.245c-0.009,0.504-0.005,0.954-0.004,1.358
		c-0.019,1.333-0.12,2.117-0.682,2.596c-0.447,0.382-0.817,0.571-2.042,0.69v0.053v1.024h11.727h0.048h5.944l1.869-5.423H82.8
		c-1.361,2.98-3.467,3.328-5.388,3.328c-1.571,0-2.616-0.089-3.357-0.569c-0.598-0.383-0.821-1.392-0.832-3.103V15.001v-0.308
		c0-2.023-0.015-3.14,0.685-3.737c0.448-0.382,1.185-0.525,2.408-0.645V9.234L76.316,9.234z"/>
	<path clip-path="url(#SVGID_2_)" fill="#FFFFFF" d="M95.856,9.234H84.129v0.001v1.024v0.053c1.224,0.12,1.595,0.308,2.042,0.69
		c0.561,0.479,0.662,1.262,0.681,2.596c-0.001,0.404-0.004,0.854,0.005,1.358v16.245c-0.009,0.504-0.006,0.954-0.005,1.358
		c-0.019,1.333-0.12,2.117-0.681,2.596c-0.447,0.382-0.818,0.571-2.042,0.69v0.053v1.024h11.727h0.048h5.944l1.869-5.423h-1.377
		c-1.362,2.98-3.468,3.328-5.388,3.328c-1.572,0-2.616-0.089-3.358-0.569c-0.597-0.383-0.821-1.392-0.831-3.103V15.001v-0.308
		c0-2.023-0.016-3.14,0.686-3.737c0.446-0.382,1.184-0.525,2.407-0.645V9.234L95.856,9.234z"/>
	<path clip-path="url(#SVGID_2_)" fill="#D41A19" d="M17.215,45.275c0.548-0.253,1.07-0.558,1.561-0.897
		c0.104-0.073,0.213-0.143,0.314-0.219c0.624-0.467,1.195-0.994,1.73-1.559c0.702-0.741,1.33-1.553,1.892-2.409
		c0.445-0.681,0.855-1.384,1.221-2.102c1.441-2.822,2.361-5.96,2.836-9.034c0.309-2.003,0.451-4.01,0.449-5.983
		c0.002-1.973-0.14-3.98-0.449-5.983c-0.475-3.074-1.395-6.212-2.836-9.034c-0.166-0.328-0.344-0.652-0.527-0.973
		c-0.768,1.407-1.394,2.883-1.904,4.401c0.934,2.777,1.476,5.693,1.676,8.608c0.068,0.988,0.095,1.983,0.096,2.98h-0.004
		c0,0.996-0.023,1.992-0.092,2.979c-0.245,3.56-0.992,7.123-2.357,10.425c-0.531,1.285-1.16,2.525-1.892,3.713
		c-0.171,0.279-0.331,0.564-0.514,0.836c-0.371,0.551-0.773,1.094-1.199,1.622c-0.487,0.602-1.006,1.185-1.562,1.729
		c-0.59,0.578-1.221,1.111-1.886,1.588c-0.053,0.038-0.104,0.08-0.158,0.117v0.063h0C14.847,46.115,16.082,45.797,17.215,45.275
		 M17.221,42.656L17.221,42.656C17.221,42.656,17.221,42.656,17.221,42.656"/>
	<path clip-path="url(#SVGID_2_)" fill="#D41A19" d="M24.425,45.275c0.549-0.252,1.071-0.557,1.561-0.897
		c0.105-0.073,0.213-0.142,0.315-0.218c2.092-1.566,3.662-3.759,4.842-6.069c1.441-2.821,2.361-5.96,2.836-9.034
		c0.31-2.003,0.451-4.01,0.448-5.983h0.001c0.002-1.973-0.14-3.98-0.449-5.983c-0.475-3.073-1.395-6.212-2.835-9.034
		c-1.09-2.134-2.519-4.161-4.378-5.693c-0.598,0.639-1.152,1.318-1.66,2.016c0.178,0.245,0.352,0.491,0.519,0.739
		c2.973,4.416,4.4,9.705,4.763,14.975c0.069,0.987,0.101,1.982,0.102,2.979c-0.001,0.997-0.033,1.992-0.102,2.98
		c-0.364,5.27-1.79,10.559-4.763,14.975c-0.372,0.551-0.773,1.094-1.199,1.622c-0.486,0.602-1.005,1.185-1.56,1.729
		c-0.591,0.578-1.222,1.112-1.887,1.589c-0.053,0.039-0.104,0.08-0.158,0.117v0.063C22.057,46.115,23.291,45.797,24.425,45.275"/>
	<path clip-path="url(#SVGID_2_)" fill="#D41A19" d="M33.51,44.159c2.093-1.565,3.664-3.758,4.843-6.069
		c1.441-2.822,2.361-5.961,2.836-9.035c0.309-2.003,0.45-4.01,0.448-5.982h0.001c0.002-1.973-0.139-3.981-0.449-5.983
		c-0.475-3.074-1.395-6.212-2.836-9.034c-1.18-2.311-2.75-4.503-4.842-6.069c-1.56-1.168-3.518-1.938-5.48-1.987h0v0.063
		c1.909,1.331,3.523,3.153,4.805,5.056c2.972,4.416,4.4,9.706,4.763,14.975c0.067,0.988,0.1,1.983,0.101,2.98
		c-0.001,0.996-0.034,1.991-0.101,2.979c-0.364,5.27-1.791,10.558-4.765,14.974c-1.28,1.904-2.894,3.727-4.803,5.057v0.063h0
		C29.994,46.097,31.951,45.328,33.51,44.159"/>
	<path clip-path="url(#SVGID_2_)" fill="#D41A19" d="M24.425,0.871c-0.549,0.253-1.07,0.558-1.561,0.897
		c-0.105,0.073-0.213,0.142-0.314,0.218c-0.624,0.466-1.195,0.995-1.73,1.559c-0.701,0.741-1.33,1.553-1.891,2.409
		c-0.446,0.68-0.856,1.384-1.222,2.102c-1.441,2.822-2.362,5.96-2.836,9.034c-0.309,2.003-0.451,4.01-0.449,5.983
		c-0.002,1.973,0.14,3.98,0.449,5.983c0.475,3.073,1.395,6.212,2.836,9.034c0.167,0.327,0.344,0.651,0.527,0.972
		c0.768-1.406,1.394-2.883,1.904-4.401c-0.934-2.777-1.476-5.693-1.676-8.608c-0.068-0.988-0.094-1.983-0.096-2.979h0.004
		c0-0.997,0.024-1.992,0.092-2.98c0.245-3.56,0.992-7.123,2.357-10.425c0.531-1.285,1.16-2.525,1.892-3.713
		c0.171-0.279,0.331-0.564,0.514-0.836c0.371-0.551,0.772-1.094,1.199-1.621c0.486-0.603,1.006-1.185,1.562-1.729
		c0.589-0.578,1.221-1.111,1.886-1.588c0.053-0.038,0.104-0.081,0.158-0.118V0l0,0C26.793,0.031,25.559,0.349,24.425,0.871
		 M24.419,3.49L24.419,3.49L24.419,3.49"/>
	<path clip-path="url(#SVGID_2_)" fill="#D41A19" d="M17.216,0.871c-0.549,0.252-1.071,0.558-1.561,0.897
		c-0.105,0.073-0.213,0.143-0.315,0.218c-2.092,1.566-3.663,3.759-4.842,6.07c-1.441,2.822-2.361,5.96-2.836,9.034
		c-0.309,2.003-0.451,4.01-0.448,5.983H7.212c-0.002,1.973,0.139,3.98,0.449,5.983c0.475,3.074,1.395,6.212,2.835,9.034
		c1.09,2.134,2.519,4.162,4.378,5.694c0.598-0.64,1.152-1.319,1.66-2.017c-0.178-0.244-0.352-0.491-0.519-0.739
		c-2.973-4.416-4.4-9.705-4.763-14.975c-0.068-0.987-0.1-1.983-0.102-2.979c0.001-0.997,0.033-1.991,0.102-2.98
		c0.364-5.27,1.791-10.559,4.763-14.974c0.372-0.552,0.773-1.094,1.2-1.622c0.486-0.602,1.005-1.184,1.561-1.729
		c0.59-0.578,1.221-1.111,1.886-1.589c0.053-0.038,0.104-0.079,0.158-0.117V0C19.583,0.031,18.35,0.349,17.216,0.871"/>
	<path clip-path="url(#SVGID_2_)" fill="#D41A19" d="M8.13,1.987C6.038,3.553,4.467,5.746,3.287,8.056
		c-1.441,2.822-2.361,5.96-2.836,9.034c-0.309,2.002-0.45,4.01-0.448,5.983h0C0,25.045,0.141,27.053,0.451,29.056
		c0.475,3.074,1.396,6.212,2.836,9.034c1.18,2.311,2.751,4.503,4.843,6.069c1.56,1.169,3.517,1.938,5.48,1.987h0v-0.062
		c-1.91-1.331-3.524-3.154-4.805-5.057c-2.973-4.416-4.4-9.705-4.763-14.975c-0.068-0.988-0.1-1.982-0.102-2.979
		c0.002-0.997,0.033-1.992,0.102-2.98c0.364-5.27,1.791-10.559,4.765-14.974c1.279-1.904,2.894-3.727,4.803-5.057V0h0
		C11.647,0.049,9.689,0.818,8.13,1.987"/>
	<path clip-path="url(#SVGID_2_)" fill="#D41A19" d="M22.084,43.783c0.598-0.639,1.151-1.319,1.66-2.016
		c-0.179-0.244-0.352-0.491-0.519-0.739c-0.184-0.271-0.343-0.557-0.515-0.835c-0.562,0.856-1.19,1.668-1.892,2.409
		C21.217,43.021,21.638,43.416,22.084,43.783"/>
	<path clip-path="url(#SVGID_2_)" fill="#D41A19" d="M25.986,44.378c-0.49,0.34-1.012,0.646-1.561,0.897
		c1.134,0.523,2.368,0.84,3.604,0.871h0.001v-0.063C27.306,45.579,26.624,45.002,25.986,44.378"/>
	<path clip-path="url(#SVGID_2_)" fill="#D41A19" d="M20.14,46.099c0.195-0.021,0.389-0.053,0.583-0.087
		c-0.197-0.14-0.392-0.283-0.583-0.433c-0.476-0.374-0.93-0.776-1.364-1.201c-0.491,0.34-1.013,0.645-1.561,0.897
		c0.746,0.344,1.536,0.593,2.341,0.736C19.75,46.046,19.945,46.078,20.14,46.099 M20.82,46.146v-0.063
		c-0.033-0.023-0.064-0.049-0.098-0.072c-0.194,0.035-0.388,0.066-0.583,0.088C20.366,46.123,20.593,46.141,20.82,46.146z"/>
	<path clip-path="url(#SVGID_2_)" fill="#D41A19" d="M19.556,2.364c-0.598,0.639-1.151,1.318-1.66,2.016
		c0.179,0.244,0.352,0.491,0.519,0.739c0.184,0.272,0.343,0.557,0.515,0.835c0.562-0.855,1.19-1.668,1.892-2.409
		C20.423,3.126,20.002,2.731,19.556,2.364"/>
	<path clip-path="url(#SVGID_2_)" fill="#D41A19" d="M15.655,1.768c0.49-0.339,1.012-0.644,1.561-0.897
		C16.082,0.349,14.848,0.031,13.612,0H13.61v0.063C14.335,0.568,15.017,1.144,15.655,1.768"/>
	<path clip-path="url(#SVGID_2_)" fill="#D41A19" d="M24.425,0.871c-0.746-0.344-1.536-0.593-2.341-0.736
		c-0.194-0.034-0.389-0.066-0.583-0.087C21.275,0.023,21.047,0.006,20.821,0v0.062c0.032,0.023,0.064,0.049,0.098,0.072
		c0.197,0.14,0.392,0.283,0.583,0.433c0.475,0.374,0.93,0.776,1.364,1.201C23.355,1.428,23.876,1.124,24.425,0.871"/>
	<rect x="0.002" y="51.92" clip-path="url(#SVGID_2_)" fill="#FFFFFF" width="103.458" height="0.23"/>
	<path clip-path="url(#SVGID_2_)" fill="#FFFFFF" d="M51.177,61.163h2.334v3.064h-2.334V61.163z M51.177,60.449v-2.302h-0.73v2.302
		h-3.031v5.403h0.729V64.94h2.302v4.508h0.73V64.94h2.335v0.912h0.729v-5.403H51.177z M46.579,60.488
		c0.142-0.325,0.269-0.658,0.379-1.001c0.111-0.343,0.218-0.702,0.319-1.079l-0.681-0.285l-0.128,0.449
		c-0.537,2.003-1.497,3.683-2.882,5.04v0.037l0.632,0.475c0.255-0.247,0.643-0.703,1.162-1.368h0.024v6.694h0.73v-7.978
		L46.579,60.488z M48.145,61.163h2.302v3.064h-2.302V61.163z"/>
	<path clip-path="url(#SVGID_2_)" fill="#FFFFFF" d="M61.866,65.31h2.918v0.47h-2.918V65.31z M68.448,65.779h-2.935v-0.47h2.935
		V65.779z M61.866,64.06h2.918v0.536h-2.918V64.06z M65.513,64.06h2.935v0.536h-2.935V64.06z M70.766,68.876v-0.713h-5.253v-0.504
		h4.139v-0.713h-4.139v-0.455h3.665v-3.145h-8.042v3.145h3.648v0.455h-4.123v0.713h4.123v0.504h-5.229v0.713H70.766z M60.033,62.894
		h10.246V62.18H60.033V62.894z M62.222,60.591h5.788v0.518h-5.788V60.591z M61.492,61.821h7.248V58.58h-7.248V61.821z
		 M62.222,59.293h5.788v0.583h-5.788V59.293z"/>
	<path clip-path="url(#SVGID_2_)" fill="#FFFFFF" d="M86.691,66.827V64.63h-0.729v1.482h-1.347v-1.806h-0.729v4.968h0.729v-2.447
		H86.691z M80.497,64.63v2.197h1.835c-0.092,0.466-0.374,0.855-0.845,1.167c-0.472,0.313-0.996,0.501-1.574,0.567l0.476,0.713
		c0.277-0.037,0.596-0.146,0.955-0.326c0.358-0.182,0.694-0.418,1.007-0.708c0.313-0.291,0.533-0.614,0.661-0.972
		c0.128-0.355,0.202-0.799,0.222-1.332l0.037-1.63h-0.73c0,1.099-0.016,1.7-0.049,1.806h-1.264V64.63H80.497z M77.578,66.036v-1.982
		h1.362v1.605C78.353,65.841,77.899,65.968,77.578,66.036 M78.94,63.34h-1.362v-1.719h1.362V63.34z M79.67,59.353h0.826v-0.715
		h-4.396v0.715h0.748v6.876l-0.846,0.188l0.438,0.699l2.5-0.699v2.891h0.73V59.353z M86.431,63.353
		c0.102,0.275,0.165,0.494,0.189,0.657c0.304-0.11,0.537-0.182,0.699-0.214c-0.09-0.434-0.374-1.084-0.852-1.951
		c-0.086,0.008-0.202,0.039-0.35,0.094c-0.148,0.055-0.251,0.09-0.308,0.106c0.167,0.28,0.274,0.49,0.323,0.632
		c-0.414,0.074-0.917,0.141-1.509,0.201l-0.024-0.023c0.859-0.682,1.664-1.688,2.414-3.019c-0.271-0.154-0.503-0.272-0.693-0.353
		c-0.247,0.527-0.441,0.894-0.584,1.101l-1.483,0.183l-0.024-0.025c0.024-0.008,0.055-0.023,0.089-0.047
		c0.034-0.025,0.058-0.041,0.069-0.049c0.681-0.696,1.209-1.451,1.581-2.264c-0.365-0.184-0.584-0.287-0.657-0.311
		c-0.023,0.032-0.055,0.087-0.09,0.167c-0.446,0.891-1.068,1.728-1.867,2.511l0.413,0.786c0.292-0.094,0.769-0.172,1.429-0.237
		c-0.494,0.629-0.998,1.167-1.514,1.618l0.396,0.783C85.246,63.509,86.03,63.394,86.431,63.353 M82.662,58.373
		c-0.065-0.021-0.175-0.072-0.331-0.155c-0.156-0.083-0.279-0.135-0.368-0.154c-0.458,1.008-1.118,1.948-1.982,2.815
		c0.048,0.076,0.115,0.207,0.201,0.393c0.085,0.184,0.151,0.314,0.2,0.392c0.093-0.017,0.291-0.063,0.593-0.144
		c0.302-0.078,0.556-0.114,0.763-0.106c-0.486,0.62-1.038,1.202-1.654,1.745c0.187,0.414,0.323,0.68,0.407,0.797
		c0.434-0.117,1.218-0.264,2.354-0.438c0.032,0.061,0.087,0.246,0.164,0.56c0.085-0.017,0.317-0.096,0.699-0.237
		c-0.073-0.364-0.335-0.967-0.784-1.807c-0.239,0.053-0.461,0.124-0.663,0.214l0.25,0.426c0.048,0.081,0.069,0.138,0.061,0.17
		c-0.705,0.114-1.178,0.177-1.417,0.188l-0.024-0.025c0.859-0.696,1.64-1.672,2.341-2.924c0.009-0.033,0.037-0.084,0.086-0.154
		c0.048-0.071,0.068-0.129,0.061-0.174l-0.693-0.322c-0.105,0.304-0.323,0.699-0.65,1.186c-0.564,0.08-1,0.134-1.308,0.158
		l-0.024-0.024C81.585,60.223,82.16,59.431,82.662,58.373 M77.578,59.353h1.362v1.556h-1.362V59.353z"/>
	<path clip-path="url(#SVGID_2_)" fill="#FFFFFF" d="M100.427,68.169v-5.41h-3.303v-0.713h6.336v0.713h-2.305v5.534
		c-0.043,0.306-0.138,0.548-0.282,0.729c-0.145,0.18-0.451,0.271-0.921,0.271h-1.344c-0.021-0.065-0.063-0.185-0.125-0.356
		c-0.063-0.171-0.104-0.305-0.125-0.398c0.325,0.027,0.697,0.041,1.119,0.041c0.357,0,0.567-0.008,0.633-0.023
		c0.064-0.016,0.133-0.059,0.207-0.125C100.39,68.362,100.427,68.275,100.427,68.169 M95.238,69.368h-0.729v-5.016
		c-0.138,0.143-0.632,0.502-1.483,1.082h-0.037c-0.056-0.069-0.163-0.17-0.318-0.305c-0.156-0.133-0.261-0.234-0.314-0.304
		c1.33-0.758,2.596-2.008,3.795-3.751l0.633,0.426c-0.224,0.4-0.738,1.074-1.545,2.019V69.368z M97.417,58.948h5.332v0.713h-5.332
		V58.948z M93.099,61.762l-0.559-0.486c1.204-0.839,2.242-1.939,3.113-3.301l0.596,0.462c-0.705,1.075-1.375,1.911-2.01,2.508
		s-0.992,0.896-1.072,0.896c-0.014,0-0.022-0.009-0.028-0.027C93.133,61.796,93.12,61.778,93.099,61.762"/>
</g>
</svg>
